<?xml version="1.0" standalone="no"?>
<!DOCTYPE svg PUBLIC "-//W3C//DTD SVG 20010904//EN"
 "http://www.w3.org/TR/2001/REC-SVG-20010904/DTD/svg10.dtd">
<svg version="1.0" xmlns="http://www.w3.org/2000/svg"
 width="400.000000pt" height="400.000000pt" viewBox="0 0 400.000000 400.000000"
 preserveAspectRatio="xMidYMid meet">

<g transform="translate(0.000000,400.000000) scale(0.100000,-0.100000)"
fill="#000000" stroke="none">
<path d="M650 3985 c-153 -31 -281 -98 -397 -208 -126 -120 -207 -266 -239
-434 -21 -110 -21 -2575 0 -2685 31 -159 96 -286 209 -405 120 -126 266 -207
434 -239 110 -21 2575 -21 2685 0 159 31 286 96 405 209 126 120 207 266 239
434 21 111 21 2575 0 2686 -52 272 -248 507 -502 603 -147 55 -110 54 -1492
53 -1009 -1 -1291 -4 -1342 -14z m877 -763 l-68 -68 3 -396 c3 -393 3 -397 26
-427 28 -38 28 -54 -2 -116 -56 -121 -201 -195 -381 -195 -144 0 -267 47 -332
127 -19 23 -47 73 -62 110 -27 65 -35 75 -75 88 -10 3 -17 7 -15 9 2 1 67 50
144 108 l140 105 0 -156 c0 -172 7 -198 66 -265 36 -41 93 -61 150 -51 49 8
84 36 112 88 22 41 22 48 25 516 l3 474 -63 58 -63 58 230 1 229 0 -67 -68z
m103 15 c0 -7 -20 -33 -45 -57 l-45 -44 0 -376 c0 -230 4 -390 11 -413 5 -20
21 -44 34 -53 23 -15 23 -17 11 -59 -30 -98 -143 -219 -246 -263 -95 -41 -249
-54 -349 -31 -60 14 -146 57 -173 87 l-23 26 30 -19 c109 -69 205 -93 324 -81
171 18 329 116 387 241 28 59 30 81 9 89 -41 15 -45 57 -45 475 l0 399 52 46
c55 48 68 54 68 33z m908 -95 c-1 -4 -289 -483 -638 -1065 l-635 -1056 -63 -1
c-35 0 -62 4 -60 9 2 5 289 484 638 1065 l635 1055 63 1 c35 0 62 -4 60 -8z
m81 -40 c7 -14 -119 -232 -643 -1102 l-652 -1085 -76 -3 c-61 -2 -77 0 -81 13
-5 13 5 15 62 15 l68 0 654 1090 c360 600 655 1090 656 1090 1 0 7 -8 12 -18z
m-1624 -624 c-4 -40 -8 -78 -10 -85 -2 -6 1 -42 6 -79 11 -81 45 -144 97 -179
48 -32 22 -33 -34 0 -64 38 -97 112 -98 219 -1 115 12 196 30 196 13 0 14 -12
9 -72z m1615 -248 c0 -38 3 -70 8 -70 4 0 17 -3 30 -6 21 -6 22 -4 22 50 0 88
25 70 32 -24 l3 -35 80 -17 c102 -21 137 -22 182 -3 39 16 52 13 35 -7 -24
-30 -87 -149 -122 -232 l-38 -90 -12 45 c-27 98 -77 162 -161 204 -27 14 -51
25 -54 25 -3 0 -4 -95 -3 -212 l3 -212 28 -7 27 -7 0 190 0 189 40 -22 c37
-21 85 -77 75 -88 -2 -2 -20 10 -40 28 -20 17 -38 31 -40 31 -3 0 -5 -76 -5
-170 l0 -169 43 -12 c247 -66 364 -250 297 -470 -20 -66 -29 -80 -93 -144 -84
-84 -150 -115 -264 -123 l-73 -5 0 -88 0 -89 -39 0 -40 0 -3 52 -3 51 -124 33
c-186 49 -232 52 -313 19 -14 -5 -18 -2 -18 13 0 43 125 42 319 -3 137 -31
141 -31 141 0 0 19 -5 25 -22 25 -13 0 -77 14 -143 30 -173 43 -200 45 -267
23 -32 -11 -59 -18 -61 -16 -5 4 167 352 174 352 4 1 12 -20 18 -45 17 -68 54
-134 98 -176 43 -42 135 -88 176 -88 l27 0 0 203 0 203 -113 32 c-133 39 -184
65 -210 110 -23 39 -10 42 29 5 37 -34 90 -57 203 -87 l92 -25 -3 26 c-3 23
-11 27 -94 48 -172 43 -231 84 -283 195 -21 46 -26 70 -26 140 0 108 22 167
87 236 59 62 136 99 242 116 l76 12 0 63 0 63 40 0 40 0 0 -70z m460 -133 c0
-2 -37 -75 -81 -161 -52 -101 -85 -154 -91 -148 -6 6 9 48 42 118 67 142 98
194 115 194 8 0 15 -1 15 -3z m48 -730 c39 -103 23 -250 -36 -347 -39 -63
-134 -150 -197 -180 -33 -16 -90 -34 -127 -41 l-68 -12 0 -89 0 -88 -54 0
c-30 0 -58 5 -61 10 -4 6 13 10 44 10 l51 0 0 93 0 93 64 11 c147 25 278 122
339 250 29 62 32 77 32 163 0 83 -3 103 -29 157 -15 34 -37 70 -47 79 -11 9
-19 22 -19 28 1 27 89 -84 108 -137z m-789 -187 c17 -66 59 -122 126 -166 30
-21 53 -39 50 -42 -2 -3 -29 7 -60 22 -81 40 -155 140 -155 211 0 44 26 28 39
-25z"/>
<path d="M2412 2054 c-106 -53 -146 -164 -94 -260 20 -37 79 -81 137 -103 30
-12 60 -21 65 -21 6 0 10 66 10 165 0 160 -1 165 -21 165 -48 0 -105 -48 -119
-102 -16 -59 2 -109 57 -157 25 -23 43 -41 39 -41 -19 0 -66 33 -94 64 -59 68
-52 156 18 220 22 19 52 38 67 42 49 10 53 13 53 34 0 29 -53 27 -118 -6z"/>
<path d="M2610 1184 c0 -220 2 -246 16 -240 9 3 22 6 30 6 12 0 14 35 14 205
0 191 1 205 18 205 33 0 122 -51 147 -84 34 -45 31 -53 -6 -21 -37 31 -102 65
-124 65 -13 0 -15 -25 -15 -185 0 -102 2 -185 4 -185 2 0 23 7 47 15 96 34
149 104 149 197 -1 127 -94 224 -252 262 l-28 6 0 -246z"/>
</g>
</svg>
